<svg width="37" height="80" viewBox="0 0 37 80" fill="none" xmlns="http://www.w3.org/2000/svg">
<path d="M18.183 43.5995L3.24863 43.5995C2.60792 43.6002 1.98174 43.7906 1.44897 44.1465C0.91619 44.5024 0.500644 45.008 0.254642 45.5996C0.00864324 46.1912 -0.0568208 46.8424 0.0665235 47.4711C0.189868 48.0998 0.496493 48.678 0.947779 49.1328L30.8729 79.058C31.3269 79.5084 31.9038 79.8148 32.5312 79.9386C33.1586 80.0624 33.8086 79.9981 34.3997 79.7539C34.9907 79.5096 35.4965 79.0962 35.8534 78.5656C36.2104 78.035 36.4027 77.4108 36.4062 76.7712L36.4062 61.8369C36.4074 60.9751 36.0674 60.1479 35.4605 59.5361L20.4697 44.5594C20.1705 44.2567 19.8145 44.0161 19.4221 43.8514C19.0296 43.6867 18.6086 43.6011 18.183 43.5995Z" fill="#FF001D"/>
<path d="M36.4062 18.163L36.4062 3.22871C36.4027 2.5892 36.2104 1.96495 35.8534 1.43433C35.4965 0.903706 34.9907 0.490326 34.3997 0.246071C33.8086 0.00181175 33.1586 -0.0624392 32.5312 0.0613629C31.9038 0.185169 31.3269 0.491516 30.8729 0.941974L0.94777 30.8671C0.494423 31.32 0.185944 31.8975 0.0614933 32.5261C-0.0629575 33.1547 0.00223564 33.8062 0.248814 34.3977C0.495396 34.9892 0.91222 35.494 1.44635 35.8481C1.98047 36.2022 2.6078 36.3895 3.24862 36.3863L18.183 36.3863C18.6076 36.3866 19.028 36.3032 19.4204 36.1409C19.8128 35.9786 20.1693 35.7407 20.4697 35.4406L35.4605 20.4639C36.0674 19.8521 36.4074 19.0248 36.4062 18.163Z" fill="#FF001D"/>
</svg>
