<svg width="37" height="80" viewBox="0 0 37 80" fill="none" xmlns="http://www.w3.org/2000/svg">
<path d="M18.2233 36.4005L33.1576 36.4005C33.7983 36.3997 34.4245 36.2094 34.9573 35.8535C35.4901 35.4976 35.9056 34.992 36.1516 34.4004C36.3976 33.8088 36.4631 33.1576 36.3397 32.5289C36.2164 31.9002 35.9098 31.322 35.4585 30.8672L5.53333 0.942038C5.07936 0.49158 4.50249 0.185221 3.87506 0.0614162C3.24763 -0.0623884 2.59762 0.00187471 2.00657 0.246132C1.41553 0.49039 0.909792 0.903768 0.552816 1.43439C0.195841 1.96502 0.00351554 2.58925 3.11569e-06 3.22876L3.11569e-06 18.1631C-0.00118739 19.0249 0.338833 19.8521 0.945748 20.4639L15.9366 35.4406C16.2358 35.7433 16.5918 35.9839 16.9842 36.1486C17.3766 36.3133 17.7977 36.3989 18.2233 36.4005Z" fill="#FF001D"/>
<path d="M3.11569e-06 61.837L3.11569e-06 76.7713C0.00351554 77.4108 0.195841 78.035 0.552817 78.5657C0.909792 79.0963 1.41553 79.5097 2.00657 79.7539C2.59762 79.9982 3.24763 80.0624 3.87506 79.9386C4.50249 79.8148 5.07937 79.5085 5.53333 79.058L35.4585 49.1329C35.9118 48.68 36.2203 48.1025 36.3448 47.4739C36.4692 46.8453 36.404 46.1938 36.1574 45.6023C35.9109 45.0108 35.494 44.506 34.9599 44.1519C34.4258 43.7978 33.7985 43.6105 33.1576 43.6137L18.2233 43.6137C17.7987 43.6134 17.3782 43.6968 16.9858 43.8591C16.5935 44.0214 16.2369 44.2593 15.9366 44.5594L0.945748 59.5361C0.338833 60.1479 -0.00118739 60.9752 3.11569e-06 61.837Z" fill="#FF001D"/>
</svg>
